<svg width="142" height="22" viewBox="0 0 142 22" fill="none" xmlns="http://www.w3.org/2000/svg">
<path fill-rule="evenodd" clip-rule="evenodd" d="M11 22C17.0751 22 22 17.0751 22 11C22 4.92487 17.0751 0 11 0C4.92487 0 0 4.92487 0 11C0 17.0751 4.92487 22 11 22ZM62.8189 4.95001C63.1122 5.24334 63.4722 5.39001 63.8989 5.39001C64.3256 5.39001 64.6856 5.24334 64.9789 4.95001C65.2722 4.65667 65.4189 4.29667 65.4189 3.87001C65.4189 3.44334 65.2722 3.08334 64.9789 2.79001C64.6856 2.49667 64.3256 2.35001 63.8989 2.35001C63.4856 2.35001 63.1256 2.49667 62.8189 2.79001C62.5256 3.08334 62.3789 3.44334 62.3789 3.87001C62.3789 4.29667 62.5256 4.65667 62.8189 4.95001ZM62.6189 19.35H65.1989V7.41001H62.6189V19.35ZM129.025 19.51C129.492 19.4167 129.898 19.2767 130.245 19.09L129.665 16.93C129.358 17.0633 129.078 17.1633 128.825 17.23C128.572 17.2833 128.305 17.31 128.025 17.31C127.612 17.31 127.305 17.2167 127.105 17.03C126.905 16.83 126.805 16.4833 126.805 15.99V9.75001H129.745V7.41001H126.805V4.23001H124.245V7.41001H122.265V9.75001H124.245V16.37C124.245 17.4367 124.545 18.25 125.145 18.81C125.745 19.37 126.578 19.65 127.645 19.65C128.098 19.65 128.558 19.6033 129.025 19.51ZM133.379 14.31H141.799V12.83C141.799 11.6033 141.553 10.5633 141.059 9.71C140.579 8.84333 139.926 8.19667 139.099 7.77C138.273 7.33 137.346 7.11 136.319 7.11C135.306 7.11 134.386 7.33 133.559 7.77C132.733 8.19667 132.073 8.83667 131.579 9.69C131.099 10.5433 130.859 11.57 130.859 12.77V13.97C130.859 15.1833 131.106 16.2167 131.599 17.07C132.093 17.9233 132.753 18.5633 133.579 18.99C134.406 19.43 135.326 19.65 136.339 19.65C137.606 19.65 138.713 19.3567 139.659 18.77C140.606 18.1967 141.253 17.3767 141.599 16.31L139.259 15.59C139.033 16.1767 138.659 16.6233 138.139 16.93C137.619 17.2233 137.019 17.37 136.339 17.37C135.553 17.37 134.879 17.1033 134.319 16.57C133.759 16.0367 133.446 15.2833 133.379 14.31ZM138.419 10.17C138.979 10.7033 139.259 11.3767 139.259 12.19H133.399C133.506 11.2833 133.826 10.59 134.359 10.11C134.906 9.61667 135.559 9.37 136.319 9.37C137.159 9.37 137.859 9.63667 138.419 10.17ZM116.418 7.11C117.352 7.11 118.185 7.29667 118.919 7.67C119.665 8.03 120.252 8.56333 120.678 9.27C121.105 9.96333 121.318 10.7833 121.318 11.73V19.35H118.958L118.839 17.83C118.519 18.4033 118.072 18.85 117.498 19.17C116.925 19.49 116.265 19.65 115.519 19.65H114.758C114.038 19.65 113.392 19.4833 112.818 19.15C112.245 18.83 111.792 18.3767 111.458 17.79C111.125 17.2167 110.958 16.5567 110.958 15.81C110.958 14.7167 111.345 13.83 112.118 13.15C112.892 12.47 113.985 12.13 115.398 12.13H118.778V11.83C118.778 11.1233 118.559 10.55 118.118 10.11C117.692 9.67 117.065 9.45 116.239 9.45C115.092 9.45 114.245 9.94333 113.699 10.93L111.398 9.95C111.865 9.11 112.545 8.43 113.438 7.91C114.332 7.37667 115.325 7.11 116.418 7.11ZM116.038 17.29C116.732 17.29 117.339 17.11 117.858 16.75C118.378 16.3767 118.685 15.8767 118.778 15.25V14.33H115.479C114.839 14.33 114.345 14.4633 113.998 14.73C113.665 14.9967 113.498 15.3567 113.498 15.81C113.498 16.2633 113.659 16.6233 113.979 16.89C114.312 17.1567 114.752 17.29 115.299 17.29H116.038ZM107.462 7.73C106.848 7.31667 106.148 7.11 105.362 7.11C104.562 7.11 103.848 7.31 103.222 7.71C102.595 8.11 102.102 8.63667 101.742 9.29C101.408 8.58333 100.948 8.04333 100.362 7.67C99.7884 7.29667 99.1217 7.11 98.3617 7.11C97.6817 7.11 97.0817 7.27 96.5617 7.59C96.0417 7.91 95.6151 8.33667 95.2817 8.87L95.1617 7.41H92.7617V19.35H95.3417V12.09C95.3417 11.1967 95.5484 10.53 95.9617 10.09C96.375 9.63667 96.9151 9.41 97.5817 9.41C98.2617 9.41 98.8017 9.62333 99.2017 10.05C99.615 10.4767 99.8217 11.1633 99.8217 12.11V19.35H102.322V12.13V12.09C102.322 11.25 102.528 10.5967 102.942 10.13C103.368 9.66333 103.908 9.43 104.562 9.43C105.255 9.43 105.802 9.64333 106.202 10.07C106.615 10.4967 106.822 11.1767 106.822 12.11V19.35H109.402V12.13C109.402 11.1167 109.228 10.23 108.882 9.47C108.548 8.71 108.075 8.13 107.462 7.73ZM88.9955 19.65C88.5422 19.65 88.1555 19.49 87.8355 19.17C87.5288 18.8633 87.3755 18.4833 87.3755 18.03C87.3755 17.5767 87.5288 17.19 87.8355 16.87C88.1555 16.55 88.5422 16.39 88.9955 16.39C89.4488 16.39 89.8288 16.55 90.1355 16.87C90.4555 17.19 90.6155 17.5767 90.6155 18.03C90.6155 18.4833 90.4555 18.8633 90.1355 19.17C89.8288 19.49 89.4488 19.65 88.9955 19.65ZM77.52 14.31H85.94V12.83C85.94 11.6033 85.6933 10.5633 85.2 9.71C84.72 8.84333 84.0667 8.19667 83.24 7.77C82.4133 7.33 81.4867 7.11 80.46 7.11C79.4467 7.11 78.5267 7.33 77.7 7.77C76.8733 8.19667 76.2133 8.83667 75.72 9.69C75.24 10.5433 75 11.57 75 12.77V13.97C75 15.1833 75.2467 16.2167 75.74 17.07C76.2333 17.9233 76.8933 18.5633 77.72 18.99C78.5467 19.43 79.4667 19.65 80.48 19.65C81.7467 19.65 82.8533 19.3567 83.8 18.77C84.7467 18.1967 85.3933 17.3767 85.74 16.31L83.4 15.59C83.1733 16.1767 82.8 16.6233 82.28 16.93C81.76 17.2233 81.16 17.37 80.48 17.37C79.6933 17.37 79.02 17.1033 78.46 16.57C77.9 16.0367 77.5867 15.2833 77.52 14.31ZM82.56 10.17C83.12 10.7033 83.4 11.3767 83.4 12.19H77.54C77.6467 11.2833 77.9667 10.59 78.5 10.11C79.0467 9.61667 79.7 9.37 80.46 9.37C81.3 9.37 82 9.63667 82.56 10.17ZM73.315 7.11C73.955 7.11 74.4683 7.19667 74.855 7.37L74.235 9.69C73.795 9.53 73.335 9.45 72.855 9.45C72.2017 9.45 71.635 9.68333 71.155 10.15C70.6883 10.6033 70.455 11.2567 70.455 12.11V19.35H67.875V7.41H70.275L70.395 9.01C70.7017 8.41 71.095 7.94333 71.575 7.61C72.0683 7.27667 72.6483 7.11 73.315 7.11ZM61.0694 19.09C60.7227 19.2767 60.316 19.4167 59.8494 19.51C59.3827 19.6033 58.9227 19.65 58.4694 19.65C57.4027 19.65 56.5694 19.37 55.9694 18.81C55.3694 18.25 55.0694 17.4367 55.0694 16.37V9.75001H53.0894V7.41001H55.0694V4.23001H57.6294V7.41001H60.5694V9.75001H57.6294V15.99C57.6294 16.4833 57.7294 16.83 57.9294 17.03C58.1294 17.2167 58.436 17.31 58.8494 17.31C59.1294 17.31 59.396 17.2833 59.6494 17.23C59.9027 17.1633 60.1827 17.0633 60.4894 16.93L61.0694 19.09ZM43.9341 14.31H52.3541V12.83C52.3541 11.6033 52.1074 10.5633 51.6141 9.71C51.1341 8.84333 50.4807 8.19667 49.6541 7.77C48.8274 7.33 47.9007 7.11 46.8741 7.11C45.8607 7.11 44.9407 7.33 44.1141 7.77C43.2874 8.19667 42.6274 8.83667 42.1341 9.69C41.6541 10.5433 41.4141 11.57 41.4141 12.77V13.97C41.4141 15.1833 41.6607 16.2167 42.1541 17.07C42.6474 17.9233 43.3074 18.5633 44.1341 18.99C44.9607 19.43 45.8807 19.65 46.8941 19.65C48.1607 19.65 49.2674 19.3567 50.2141 18.77C51.1607 18.1967 51.8074 17.3767 52.1541 16.31L49.8141 15.59C49.5874 16.1767 49.2141 16.6233 48.6941 16.93C48.1741 17.2233 47.5741 17.37 46.8941 17.37C46.1074 17.37 45.4341 17.1033 44.8741 16.57C44.3141 16.0367 44.0007 15.2833 43.9341 14.31ZM48.9741 10.17C49.5341 10.7033 49.8141 11.3767 49.8141 12.19H43.9541C44.0607 11.2833 44.3807 10.59 44.9141 10.11C45.4607 9.61667 46.1141 9.37 46.8741 9.37C47.7141 9.37 48.4141 9.63667 48.9741 10.17ZM40.64 19.35H37.78L34.58 12.71H34.54H30.58V19.35H28V3.03H34.54C36.2867 3.03 37.6667 3.44333 38.68 4.27C39.7067 5.09667 40.22 6.29 40.22 7.85C40.22 9.01 39.94 9.97 39.38 10.73C38.82 11.49 38.0333 12.03 37.02 12.35L40.64 19.35ZM30.58 5.31V10.43H34.36C35.4267 10.43 36.24 10.21 36.8 9.77C37.36 9.33 37.64 8.69 37.64 7.85C37.64 7.02333 37.36 6.39667 36.8 5.97C36.24 5.53 35.4267 5.31 34.36 5.31H30.58Z" fill="black"/>
</svg>
