<svg width="18" height="11" viewBox="0 0 18 11" fill="none" xmlns="http://www.w3.org/2000/svg">
<mask id="path-1-inside-1_109_9622" fill="white">
<path fill-rule="evenodd" clip-rule="evenodd" d="M15.7709 0.0867343C16.3388 0.324445 16.6065 0.977537 16.3688 1.54546L15.4989 3.62377H16.3849C17.0006 3.62377 17.4997 4.12286 17.4997 4.73852C17.4997 5.35418 17.0006 5.85327 16.3849 5.85327H14.5657L13.0384 9.50201C12.8618 9.92391 12.4455 10.1951 11.9882 10.1861C11.5309 10.1771 11.1255 9.88973 10.9657 9.46121L9.04209 4.30457L7.11851 9.46121C6.95929 9.88804 6.55638 10.175 6.10096 10.186C5.64554 10.197 5.22925 9.9298 5.04962 9.51116L3.48013 5.85327H1.61475C0.999092 5.85327 0.5 5.35418 0.5 4.73852C0.5 4.12286 0.999092 3.62377 1.61475 3.62377H2.52351L1.63569 1.5546C1.39293 0.98882 1.65479 0.333369 2.22057 0.0906091C2.78634 -0.152151 3.4418 0.109708 3.68456 0.675488L5.197 4.20041C5.23223 4.2642 5.26139 4.33182 5.2837 4.40247L6.00174 6.07594L7.99764 0.725432C8.16029 0.289398 8.5767 0.000290052 9.04209 0.000290052C9.50747 0.000290052 9.92388 0.289398 10.0865 0.725432L12.0698 6.04195L12.7641 4.38315C12.7812 4.33232 12.8018 4.28313 12.8257 4.23587L14.3121 0.684631C14.5498 0.116711 15.2029 -0.150976 15.7709 0.0867343Z"/>
</mask>
<path fill-rule="evenodd" clip-rule="evenodd" d="M15.7709 0.0867343C16.3388 0.324445 16.6065 0.977537 16.3688 1.54546L15.4989 3.62377H16.3849C17.0006 3.62377 17.4997 4.12286 17.4997 4.73852C17.4997 5.35418 17.0006 5.85327 16.3849 5.85327H14.5657L13.0384 9.50201C12.8618 9.92391 12.4455 10.1951 11.9882 10.1861C11.5309 10.1771 11.1255 9.88973 10.9657 9.46121L9.04209 4.30457L7.11851 9.46121C6.95929 9.88804 6.55638 10.175 6.10096 10.186C5.64554 10.197 5.22925 9.9298 5.04962 9.51116L3.48013 5.85327H1.61475C0.999092 5.85327 0.5 5.35418 0.5 4.73852C0.5 4.12286 0.999092 3.62377 1.61475 3.62377H2.52351L1.63569 1.5546C1.39293 0.98882 1.65479 0.333369 2.22057 0.0906091C2.78634 -0.152151 3.4418 0.109708 3.68456 0.675488L5.197 4.20041C5.23223 4.2642 5.26139 4.33182 5.2837 4.40247L6.00174 6.07594L7.99764 0.725432C8.16029 0.289398 8.5767 0.000290052 9.04209 0.000290052C9.50747 0.000290052 9.92388 0.289398 10.0865 0.725432L12.0698 6.04195L12.7641 4.38315C12.7812 4.33232 12.8018 4.28313 12.8257 4.23587L14.3121 0.684631C14.5498 0.116711 15.2029 -0.150976 15.7709 0.0867343Z" fill="white"/>
<path d="M16.3688 1.54546L16.2304 1.48754L16.2304 1.48754L16.3688 1.54546ZM15.7709 0.0867343L15.7129 0.225103L15.7129 0.225103L15.7709 0.0867343ZM15.4989 3.62377L15.3605 3.56585C15.3411 3.61215 15.3462 3.66508 15.374 3.70687C15.4018 3.74866 15.4487 3.77377 15.4989 3.77377V3.62377ZM14.5657 5.85327V5.70327C14.5052 5.70327 14.4506 5.73958 14.4273 5.79536L14.5657 5.85327ZM13.0384 9.50201L13.1768 9.55993L13.1768 9.55993L13.0384 9.50201ZM10.9657 9.46121L11.1062 9.40879L11.1062 9.40879L10.9657 9.46121ZM9.04209 4.30457L9.18263 4.25214C9.16074 4.19347 9.10471 4.15457 9.04209 4.15457C8.97947 4.15457 8.92343 4.19347 8.90155 4.25214L9.04209 4.30457ZM7.11851 9.46121L6.97797 9.40879L6.97797 9.40879L7.11851 9.46121ZM5.04962 9.51116L5.18747 9.45201L5.18747 9.45201L5.04962 9.51116ZM3.48013 5.85327L3.61797 5.79413C3.59432 5.73901 3.54011 5.70327 3.48013 5.70327V5.85327ZM2.52351 3.62377V3.77377C2.57394 3.77377 2.621 3.74842 2.64875 3.70631C2.67651 3.6642 2.68124 3.61097 2.66135 3.56462L2.52351 3.62377ZM1.63569 1.5546L1.77353 1.49545L1.77353 1.49545L1.63569 1.5546ZM3.68456 0.675488L3.8224 0.616342L3.8224 0.616342L3.68456 0.675488ZM5.197 4.20041L5.05915 4.25955C5.06111 4.26411 5.06329 4.26857 5.06569 4.27292L5.197 4.20041ZM5.2837 4.40247L5.14066 4.44764C5.14216 4.45238 5.14389 4.45705 5.14585 4.46162L5.2837 4.40247ZM6.00174 6.07594L5.86389 6.13509C5.88806 6.19142 5.94408 6.22737 6.00536 6.2259C6.06664 6.22442 6.12085 6.1858 6.14228 6.12836L6.00174 6.07594ZM7.99764 0.725432L7.8571 0.673007L7.8571 0.673007L7.99764 0.725432ZM10.0865 0.725432L10.2271 0.673007L10.2271 0.673006L10.0865 0.725432ZM12.0698 6.04195L11.9292 6.09437C11.9507 6.15203 12.0053 6.19071 12.0668 6.19192C12.1283 6.19313 12.1844 6.15663 12.2081 6.09986L12.0698 6.04195ZM12.7641 4.38315L12.9028 4.44122L12.9063 4.43094L12.7641 4.38315ZM12.8257 4.23587L12.9599 4.30377L12.9641 4.29378L12.8257 4.23587ZM14.3121 0.684631L14.1738 0.626715L14.1738 0.626715L14.3121 0.684631ZM16.5071 1.60337C16.7768 0.959035 16.4731 0.218063 15.8288 -0.0516338L15.7129 0.225103C16.2044 0.430827 16.4361 0.99604 16.2304 1.48754L16.5071 1.60337ZM15.6372 3.68168L16.5071 1.60337L16.2304 1.48754L15.3605 3.56585L15.6372 3.68168ZM15.4989 3.77377H16.3849V3.47377H15.4989V3.77377ZM16.3849 3.77377C16.9177 3.77377 17.3497 4.2057 17.3497 4.73852H17.6497C17.6497 4.04002 17.0834 3.47377 16.3849 3.47377V3.77377ZM17.3497 4.73852C17.3497 5.27134 16.9177 5.70327 16.3849 5.70327V6.00327C17.0834 6.00327 17.6497 5.43702 17.6497 4.73852H17.3497ZM16.3849 5.70327H14.5657V6.00327H16.3849V5.70327ZM13.1768 9.55993L14.704 5.91119L14.4273 5.79536L12.9001 9.4441L13.1768 9.55993ZM11.9852 10.3361C12.504 10.3463 12.9764 10.0386 13.1768 9.55993L12.9001 9.4441C12.7472 9.80923 12.3869 10.044 11.9911 10.0362L11.9852 10.3361ZM10.8251 9.51364C11.0065 9.99982 11.4664 10.3259 11.9852 10.3361L11.9911 10.0362C11.5954 10.0284 11.2445 9.77964 11.1062 9.40879L10.8251 9.51364ZM8.90155 4.357L10.8251 9.51364L11.1062 9.40879L9.18263 4.25214L8.90155 4.357ZM7.25905 9.51364L9.18263 4.357L8.90155 4.25214L6.97797 9.40879L7.25905 9.51364ZM6.10458 10.336C6.62128 10.3235 7.0784 9.9979 7.25905 9.51364L6.97797 9.40879C6.84017 9.77818 6.49148 10.0266 6.09734 10.0361L6.10458 10.336ZM4.91177 9.5703C5.11557 10.0453 5.58788 10.3485 6.10458 10.336L6.09734 10.0361C5.7032 10.0456 5.34293 9.81432 5.18747 9.45201L4.91177 9.5703ZM3.34228 5.91242L4.91177 9.5703L5.18747 9.45201L3.61797 5.79413L3.34228 5.91242ZM1.61475 6.00327H3.48013V5.70327H1.61475V6.00327ZM0.35 4.73852C0.35 5.43702 0.91625 6.00327 1.61475 6.00327V5.70327C1.08194 5.70327 0.65 5.27134 0.65 4.73852H0.35ZM1.61475 3.47377C0.91625 3.47377 0.35 4.04002 0.35 4.73852H0.65C0.65 4.2057 1.08194 3.77377 1.61475 3.77377V3.47377ZM2.52351 3.47377H1.61475V3.77377H2.52351V3.47377ZM1.49784 1.61375L2.38566 3.68291L2.66135 3.56462L1.77353 1.49545L1.49784 1.61375ZM2.16142 -0.0472376C1.51951 0.228188 1.22241 0.971836 1.49784 1.61375L1.77353 1.49545C1.56344 1.0058 1.79006 0.438551 2.27971 0.228456L2.16142 -0.0472376ZM3.8224 0.616342C3.54698 -0.0255687 2.80333 -0.322663 2.16142 -0.0472376L2.27971 0.228456C2.76936 0.0183613 3.33661 0.244985 3.54671 0.734634L3.8224 0.616342ZM5.33485 4.14126L3.8224 0.616342L3.54671 0.734634L5.05915 4.25955L5.33485 4.14126ZM5.42674 4.35731C5.4014 4.27706 5.36829 4.20029 5.32831 4.12789L5.06569 4.27292C5.09617 4.32811 5.12138 4.38657 5.14066 4.44764L5.42674 4.35731ZM6.13958 6.01679L5.42155 4.34333L5.14585 4.46162L5.86389 6.13509L6.13958 6.01679ZM7.8571 0.673007L5.8612 6.02351L6.14228 6.12836L8.13818 0.777858L7.8571 0.673007ZM9.04209 -0.14971C8.51408 -0.14971 8.04164 0.1783 7.8571 0.673007L8.13818 0.777858C8.27894 0.400496 8.63932 0.15029 9.04209 0.15029V-0.14971ZM10.2271 0.673006C10.0425 0.1783 9.57009 -0.14971 9.04209 -0.14971V0.15029C9.44485 0.15029 9.80523 0.400496 9.946 0.777858L10.2271 0.673006ZM12.2103 5.98952L10.2271 0.673007L9.946 0.777858L11.9292 6.09437L12.2103 5.98952ZM12.6257 4.32523L11.9314 5.98403L12.2081 6.09986L12.9024 4.44107L12.6257 4.32523ZM12.9063 4.43094C12.921 4.387 12.9389 4.34447 12.9596 4.3036L12.6919 4.16814C12.6647 4.22178 12.6413 4.27764 12.6219 4.33536L12.9063 4.43094ZM14.1738 0.626715L12.6873 4.17795L12.9641 4.29378L14.4505 0.742547L14.1738 0.626715ZM15.8288 -0.0516338C15.1844 -0.321331 14.4435 -0.0176235 14.1738 0.626715L14.4505 0.742547C14.6562 0.251045 15.2214 0.0193779 15.7129 0.225103L15.8288 -0.0516338Z" fill="#00C76B" mask="url(#path-1-inside-1_109_9622)"/>
</svg>
