<svg width="20" height="22" viewBox="0 0 20 22" fill="none" xmlns="http://www.w3.org/2000/svg">
<path fill-rule="evenodd" clip-rule="evenodd" d="M19.2001 1.64988C19.2001 1.15282 18.7972 0.749878 18.3001 0.749878C17.803 0.749878 17.4001 1.15282 17.4001 1.64988V4.7161C17.2868 4.59172 17.1711 4.47086 17.0534 4.35351C15.2644 2.56066 12.7795 1.45007 10.0335 1.45007C4.55115 1.45007 0.100098 5.87988 0.100098 11.3501C0.100098 16.8203 4.55115 21.2501 10.0335 21.2501C15.1059 21.2501 19.2939 17.4592 19.8934 12.5595C19.9538 12.0661 19.6028 11.6172 19.1094 11.5568C18.616 11.4965 18.1671 11.8475 18.1068 12.3409C17.617 16.3436 14.1904 19.4501 10.0335 19.4501C5.53897 19.4501 1.9001 15.8199 1.9001 11.3501C1.9001 6.88027 5.53897 3.25007 10.0335 3.25007C12.2855 3.25007 14.3169 4.15909 15.78 5.62569L15.7819 5.62765C15.9188 5.76399 16.051 5.90475 16.178 6.04988H13.0001C12.503 6.04988 12.1001 6.45282 12.1001 6.94988C12.1001 7.44693 12.503 7.84988 13.0001 7.84988H18.3001C18.7972 7.84988 19.2001 7.44693 19.2001 6.94988V1.64988Z" fill="#444444"/>
</svg>
