<svg width="20" height="22" viewBox="0 0 20 22" fill="none" xmlns="http://www.w3.org/2000/svg">
<path fill-rule="evenodd" clip-rule="evenodd" d="M19.2 1.64988C19.2 1.15282 18.797 0.749878 18.3 0.749878C17.8029 0.749878 17.4 1.15282 17.4 1.64988V4.7161C17.2867 4.59172 17.171 4.47086 17.0532 4.35351C15.2643 2.56066 12.7794 1.45007 10.0334 1.45007C4.55103 1.45007 0.0999756 5.87988 0.0999756 11.3501C0.0999756 16.8203 4.55103 21.2501 10.0334 21.2501C15.1058 21.2501 19.2938 17.4592 19.8933 12.5595C19.9537 12.0661 19.6027 11.6172 19.1093 11.5568C18.6159 11.4965 18.167 11.8475 18.1066 12.3409C17.6169 16.3436 14.1903 19.4501 10.0334 19.4501C5.53885 19.4501 1.89998 15.8199 1.89998 11.3501C1.89998 6.88027 5.53885 3.25007 10.0334 3.25007C12.2854 3.25007 14.3168 4.15909 15.7798 5.62569L15.7818 5.62765C15.9186 5.76399 16.0509 5.90475 16.1778 6.04988H13C12.5029 6.04988 12.1 6.45282 12.1 6.94988C12.1 7.44693 12.5029 7.84988 13 7.84988H18.3C18.797 7.84988 19.2 7.44693 19.2 6.94988V1.64988Z" fill="#444444"/>
</svg>
