<svg width="15" height="14" viewBox="0 0 15 14" fill="none" xmlns="http://www.w3.org/2000/svg">
<path fill-rule="evenodd" clip-rule="evenodd" d="M13.6667 7C13.6667 10.3137 10.9805 13 7.66675 13C4.35304 13 1.66675 10.3137 1.66675 7C1.66675 3.68629 4.35304 1 7.66675 1C10.9805 1 13.6667 3.68629 13.6667 7ZM14.6667 7C14.6667 10.866 11.5327 14 7.66675 14C3.80075 14 0.666748 10.866 0.666748 7C0.666748 3.13401 3.80075 0 7.66675 0C11.5327 0 14.6667 3.13401 14.6667 7ZM5.34595 5.38C5.40495 4.214 6.18195 3.286 7.69895 3.286C9.05895 3.286 9.98895 4.128 9.98895 5.24C9.98895 6.088 9.55095 6.687 8.85995 7.103C8.17395 7.507 7.97995 7.81 7.97995 8.377V8.727H7.03495V8.231C7.02995 7.518 7.37495 7.032 8.11495 6.59C8.74095 6.206 8.98495 5.866 8.98495 5.289C8.98495 4.619 8.46595 4.128 7.66195 4.128C6.84595 4.128 6.32795 4.608 6.26895 5.38H5.34595ZM7.58095 11.233C7.37978 11.2407 7.18453 11.1641 7.04218 11.0218C6.89984 10.8794 6.82328 10.6842 6.83095 10.483C6.83095 10.039 7.14295 9.726 7.58095 9.726C8.01795 9.726 8.32595 10.039 8.32595 10.482C8.32595 10.919 8.01795 11.232 7.58095 11.232V11.233Z" fill="#929294"/>
</svg>
