<svg width="15" height="14" viewBox="0 0 15 14" fill="none" xmlns="http://www.w3.org/2000/svg">
<path fill-rule="evenodd" clip-rule="evenodd" d="M13.5 7C13.5 10.3137 10.8137 13 7.5 13C4.18629 13 1.5 10.3137 1.5 7C1.5 3.68629 4.18629 1 7.5 1C10.8137 1 13.5 3.68629 13.5 7ZM14.5 7C14.5 10.866 11.366 14 7.5 14C3.63401 14 0.5 10.866 0.5 7C0.5 3.13401 3.63401 0 7.5 0C11.366 0 14.5 3.13401 14.5 7ZM5.1792 5.38C5.2382 4.214 6.0152 3.286 7.5322 3.286C8.8922 3.286 9.8222 4.128 9.8222 5.24C9.8222 6.088 9.3842 6.687 8.6932 7.103C8.0072 7.507 7.8132 7.81 7.8132 8.377V8.727H6.8682V8.231C6.8632 7.518 7.2082 7.032 7.9482 6.59C8.5742 6.206 8.8182 5.866 8.8182 5.289C8.8182 4.619 8.2992 4.128 7.4952 4.128C6.6792 4.128 6.1612 4.608 6.1022 5.38H5.1792ZM7.4142 11.233C7.21304 11.2407 7.01778 11.1641 6.87544 11.0218C6.73309 10.8794 6.65654 10.6842 6.6642 10.483C6.6642 10.039 6.9762 9.726 7.4142 9.726C7.8512 9.726 8.1592 10.039 8.1592 10.482C8.1592 10.919 7.8512 11.232 7.4142 11.232V11.233Z" fill="#929294"/>
</svg>
