<svg width="15" height="14" viewBox="0 0 15 14" fill="none" xmlns="http://www.w3.org/2000/svg">
<path fill-rule="evenodd" clip-rule="evenodd" d="M13.3333 7C13.3333 10.3137 10.647 13 7.33325 13C4.01954 13 1.33325 10.3137 1.33325 7C1.33325 3.68629 4.01954 1 7.33325 1C10.647 1 13.3333 3.68629 13.3333 7ZM14.3333 7C14.3333 10.866 11.1992 14 7.33325 14C3.46726 14 0.333252 10.866 0.333252 7C0.333252 3.13401 3.46726 0 7.33325 0C11.1992 0 14.3333 3.13401 14.3333 7ZM5.01245 5.38C5.07145 4.214 5.84845 3.286 7.36545 3.286C8.72545 3.286 9.65545 4.128 9.65545 5.24C9.65545 6.088 9.21745 6.687 8.52645 7.103C7.84045 7.507 7.64645 7.81 7.64645 8.377V8.727H6.70145V8.231C6.69645 7.518 7.04145 7.032 7.78145 6.59C8.40745 6.206 8.65145 5.866 8.65145 5.289C8.65145 4.619 8.13245 4.128 7.32845 4.128C6.51245 4.128 5.99445 4.608 5.93545 5.38H5.01245ZM7.24745 11.233C7.04629 11.2407 6.85104 11.1641 6.70869 11.0218C6.56634 10.8794 6.48979 10.6842 6.49745 10.483C6.49745 10.039 6.80945 9.726 7.24745 9.726C7.68445 9.726 7.99245 10.039 7.99245 10.482C7.99245 10.919 7.68445 11.232 7.24745 11.232V11.233Z" fill="#929294"/>
</svg>
