<svg width="14" height="14" viewBox="0 0 14 14" fill="none" xmlns="http://www.w3.org/2000/svg">
<path fill-rule="evenodd" clip-rule="evenodd" d="M13 7C13 10.3137 10.3137 13 7 13C3.68629 13 1 10.3137 1 7C1 3.68629 3.68629 1 7 1C10.3137 1 13 3.68629 13 7ZM14 7C14 10.866 10.866 14 7 14C3.13401 14 0 10.866 0 7C0 3.13401 3.13401 0 7 0C10.866 0 14 3.13401 14 7ZM4.6792 5.38C4.7382 4.214 5.5152 3.286 7.0322 3.286C8.3922 3.286 9.3222 4.128 9.3222 5.24C9.3222 6.088 8.8842 6.687 8.1932 7.103C7.5072 7.507 7.3132 7.81 7.3132 8.377V8.727H6.3682V8.231C6.3632 7.518 6.7082 7.032 7.4482 6.59C8.0742 6.206 8.3182 5.866 8.3182 5.289C8.3182 4.619 7.7992 4.128 6.9952 4.128C6.1792 4.128 5.6612 4.608 5.6022 5.38H4.6792ZM6.9142 11.233C6.71304 11.2407 6.51778 11.1641 6.37544 11.0218C6.23309 10.8794 6.15654 10.6842 6.1642 10.483C6.1642 10.039 6.4762 9.726 6.9142 9.726C7.3512 9.726 7.6592 10.039 7.6592 10.482C7.6592 10.919 7.3512 11.232 6.9142 11.232V11.233Z" fill="#929294"/>
</svg>
