<svg width="22" height="22" viewBox="0 0 22 22" fill="none" xmlns="http://www.w3.org/2000/svg">
<path fill-rule="evenodd" clip-rule="evenodd" d="M21 11C21 16.5228 16.5228 21 11 21C5.47715 21 1 16.5228 1 11C1 5.47715 5.47715 1 11 1C16.5228 1 21 5.47715 21 11ZM22 11C22 17.0751 17.0751 22 11 22C4.92487 22 0 17.0751 0 11C0 4.92487 4.92487 0 11 0C17.0751 0 22 4.92487 22 11ZM8.52981 15.2314C8.65866 15.3583 8.83241 15.4291 9.01324 15.4285C9.1942 15.4289 9.36796 15.3586 9.49667 15.2314L16.7995 8.00911C16.9276 7.88325 16.9997 7.71123 16.9997 7.53168C16.9997 7.35213 16.9276 7.18011 16.7995 7.05425C16.5316 6.79035 16.1015 6.79035 15.8335 7.05425L9.01324 13.7974L6.16581 10.9825C5.89789 10.7186 5.46774 10.7186 5.19981 10.9825C5.07198 11.1085 5 11.2805 5 11.46C5 11.6394 5.07198 11.8114 5.19981 11.9374L8.52981 15.2314Z" fill="#BBBBBD"/>
</svg>
