<svg width="17" height="18" viewBox="0 0 17 18" fill="none" xmlns="http://www.w3.org/2000/svg">
<path fill-rule="evenodd" clip-rule="evenodd" d="M1.28638 9.00028C1.28638 4.93709 4.58034 1.64317 8.64293 1.64317C12.7061 1.64317 16 4.93711 16 9.00028C16 13.0629 12.7061 16.3568 8.64293 16.3568C4.58031 16.3568 1.28638 13.0629 1.28638 9.00028ZM8.64293 0.643173C4.028 0.643173 0.286377 4.38485 0.286377 9.00028C0.286377 13.6152 4.02803 17.3568 8.64293 17.3568C13.2584 17.3568 17 13.6152 17 9.00028C17 4.38482 13.2584 0.643173 8.64293 0.643173ZM8.52095 11.4498C7.98026 11.4498 7.62329 11.7902 7.62329 12.3149C7.62329 12.8341 7.98026 13.1751 8.52095 13.1751C9.07267 13.1751 9.41915 12.8341 9.41915 12.3149C9.41915 11.7902 9.07267 11.4498 8.52095 11.4498ZM11.1444 7.00217C11.1444 5.731 10.1546 4.82286 8.67267 4.82286C7.06605 4.82286 6.18494 5.8121 6.14136 7.17486H7.41253C7.45556 6.47307 7.90467 6.02452 8.60205 6.02452C9.28398 6.02452 9.73805 6.45596 9.73805 7.05403C9.73805 7.62341 9.51074 7.92796 8.84039 8.35941C8.09391 8.82507 7.77998 9.34203 7.82908 10.2049L7.83405 10.5961H9.08922V10.2684C9.08922 9.699 9.2895 9.40548 9.99791 8.963C10.7334 8.49734 11.1444 7.88217 11.1444 7.00217Z" fill="#999999"/>
</svg>
