<svg width="17" height="18" viewBox="0 0 17 18" fill="none" xmlns="http://www.w3.org/2000/svg">
<path fill-rule="evenodd" clip-rule="evenodd" d="M1 9.00029C1 4.9371 4.29396 1.64319 8.35655 1.64319C12.4197 1.64319 15.7137 4.93712 15.7137 9.00029C15.7137 13.0629 12.4197 16.3568 8.35655 16.3568C4.29394 16.3568 1 13.0629 1 9.00029ZM8.35655 0.643188C3.74163 0.643188 0 4.38486 0 9.00029C0 13.6152 3.74165 17.3568 8.35655 17.3568C12.972 17.3568 16.7137 13.6152 16.7137 9.00029C16.7137 4.38484 12.972 0.643188 8.35655 0.643188ZM8.23457 11.4498C7.69388 11.4498 7.33691 11.7902 7.33691 12.3149C7.33691 12.8341 7.69388 13.1751 8.23457 13.1751C8.78629 13.1751 9.13278 12.8341 9.13278 12.3149C9.13278 11.7902 8.78629 11.4498 8.23457 11.4498ZM10.858 7.00219C10.858 5.73101 9.86822 4.82288 8.38629 4.82288C6.77967 4.82288 5.89857 5.81212 5.85498 7.17488H7.12615C7.16919 6.47308 7.61829 6.02453 8.31567 6.02453C8.9976 6.02453 9.45167 6.45598 9.45167 7.05405C9.45167 7.62343 9.22436 7.92798 8.55402 8.35943C7.80753 8.82508 7.4936 9.34205 7.5427 10.2049L7.54767 10.5961H8.80284V10.2684C8.80284 9.69901 9.00312 9.4055 9.71153 8.96301C10.447 8.49736 10.858 7.88219 10.858 7.00219Z" fill="#999999"/>
</svg>
