<svg width="17" height="18" viewBox="0 0 17 18" fill="none" xmlns="http://www.w3.org/2000/svg">
<path fill-rule="evenodd" clip-rule="evenodd" d="M1.28613 9.00029C1.28613 4.9371 4.58009 1.64319 8.64268 1.64319C12.7059 1.64319 15.9998 4.93712 15.9998 9.00029C15.9998 13.0629 12.7059 16.3568 8.64268 16.3568C4.58007 16.3568 1.28613 13.0629 1.28613 9.00029ZM8.64268 0.643188C4.02776 0.643188 0.286133 4.38486 0.286133 9.00029C0.286133 13.6152 4.02778 17.3568 8.64268 17.3568C13.2581 17.3568 16.9998 13.6152 16.9998 9.00029C16.9998 4.38484 13.2581 0.643188 8.64268 0.643188ZM8.5207 11.4498C7.98001 11.4498 7.62305 11.7902 7.62305 12.3149C7.62305 12.8341 7.98001 13.1751 8.5207 13.1751C9.07243 13.1751 9.41891 12.8341 9.41891 12.3149C9.41891 11.7902 9.07243 11.4498 8.5207 11.4498ZM11.1441 7.00219C11.1441 5.73101 10.1544 4.82288 8.67242 4.82288C7.0658 4.82288 6.1847 5.81212 6.14111 7.17488H7.41229C7.45532 6.47308 7.90442 6.02453 8.6018 6.02453C9.28373 6.02453 9.7378 6.45598 9.7378 7.05405C9.7378 7.62343 9.51049 7.92798 8.84015 8.35943C8.09367 8.82508 7.77973 9.34205 7.82884 10.2049L7.8338 10.5961H9.08898V10.2684C9.08898 9.69901 9.28925 9.4055 9.99767 8.96301C10.7331 8.49736 11.1441 7.88219 11.1441 7.00219Z" fill="#999999"/>
</svg>
