<svg width="23" height="22" viewBox="0 0 23 22" fill="none" xmlns="http://www.w3.org/2000/svg">
<path fill-rule="evenodd" clip-rule="evenodd" d="M21.2864 11C21.2864 16.5228 16.8092 21 11.2864 21C5.76353 21 1.28638 16.5228 1.28638 11C1.28638 5.47715 5.76353 1 11.2864 1C16.8092 1 21.2864 5.47715 21.2864 11ZM22.2864 11C22.2864 17.0751 17.3615 22 11.2864 22C5.21124 22 0.286377 17.0751 0.286377 11C0.286377 4.92487 5.21124 0 11.2864 0C17.3615 0 22.2864 4.92487 22.2864 11ZM8.81619 15.2314C8.94503 15.3583 9.11878 15.4291 9.29962 15.4285C9.48057 15.4289 9.65434 15.3586 9.78305 15.2314L17.0859 8.00911C17.214 7.88325 17.2861 7.71123 17.2861 7.53168C17.2861 7.35213 17.214 7.18011 17.0859 7.05425C16.818 6.79035 16.3878 6.79035 16.1199 7.05425L9.29962 13.7974L6.45219 10.9825C6.18426 10.7186 5.75412 10.7186 5.48619 10.9825C5.35835 11.1085 5.28638 11.2805 5.28638 11.46C5.28638 11.6394 5.35835 11.8114 5.48619 11.9374L8.81619 15.2314Z" fill="#BBBBBD"/>
</svg>
