<svg width="23" height="22" viewBox="0 0 23 22" fill="none" xmlns="http://www.w3.org/2000/svg">
<path fill-rule="evenodd" clip-rule="evenodd" d="M21.2861 11C21.2861 16.5228 16.809 21 11.2861 21C5.76329 21 1.28613 16.5228 1.28613 11C1.28613 5.47715 5.76329 1 11.2861 1C16.809 1 21.2861 5.47715 21.2861 11ZM22.2861 11C22.2861 17.0751 17.3613 22 11.2861 22C5.211 22 0.286133 17.0751 0.286133 11C0.286133 4.92487 5.211 0 11.2861 0C17.3613 0 22.2861 4.92487 22.2861 11ZM8.81595 15.2314C8.94479 15.3583 9.11854 15.4291 9.29937 15.4285C9.48033 15.4289 9.6541 15.3586 9.7828 15.2314L17.0857 8.00911C17.2137 7.88325 17.2858 7.71123 17.2858 7.53168C17.2858 7.35213 17.2137 7.18011 17.0857 7.05425C16.8177 6.79035 16.3876 6.79035 16.1197 7.05425L9.29937 13.7974L6.45195 10.9825C6.18402 10.7186 5.75387 10.7186 5.48595 10.9825C5.35811 11.1085 5.28613 11.2805 5.28613 11.46C5.28613 11.6394 5.35811 11.8114 5.48595 11.9374L8.81595 15.2314Z" fill="#BBBBBD"/>
</svg>
